# xmcd
#
# Track frame offsets: 
#        150
#        10250
#        22050
#        33597
#        45739
#        56557
#        69362
#        83641
#        95308
#        109944
#        124480
#        136522
#        149625
#        161680
#        177680
#        190631
#        201977
#        215030
#        231357
#        242519
#        262081
#        275768
#
# Disc length: 3860 seconds
#
# Revision: 2
# Processed by: cddbd v1.5.2PL0 Copyright (c) Steve Scherf et al.
# Submitted via: ExactAudioCopy v1.0b3
#
DISCID=4f0f1216
DTITLE=The White Stripes - The Roots Of
DYEAR=2009
DGENRE=Blues
TTITLE0=Johnny Cash - Get Rhythm
TTITLE1=John Lee Hooker - Boogie Chillun
TTITLE2=Gene Vincent - Baby Blue
TTITLE3=Patti Page - I Don't Care If The Sun Don't Shine
TTITLE4=James Cagney - Harrigan
TTITLE5=Tampa Red - You Can't Get The Stuff No More
TTITLE6=Blind Willie McTell  - Dying Crapshooter's Blues
TTITLE7=Robert Johnson - If I Had Posession Over Judgement Day
TTITLE8=Leadbelly - The House Of The Rising Sun
TTITLE9=Blind Willie McTell - Southern Can Is Mine
TTITLE10=The Carter Family - Black Jack David
TTITLE11=Hank Williams - Jambalaya (On The Bayou)
TTITLE12=Josh White - St. James Infirmary
TTITLE13=Tommy Johnson - Cool Drink Of Water Blues
TTITLE14=Blind Willie McTell  - Lord, Send Me An Angel
TTITLE15=Son House - John The Revelator
TTITLE16=Leadbelly - Take A Wife On Me
TTITLE17=Mississippi Fred McDowell - Keep Your Lamps Trimmed And Burni
TTITLE17=ng
TTITLE18=Robert Johnson - Stones In My Passway
TTITLE19=Son House - Death Letter Blues
TTITLE20=Blind Willie Johnson  - Lord I Just Can't Keep From Crying'
TTITLE21=Leadbelly - Boll Weevil
EXTD=by Columbia No1
EXTT0=
EXTT1=
EXTT2=
EXTT3=
EXTT4=
EXTT5=
EXTT6=
EXTT7=
EXTT8=
EXTT9=
EXTT10=
EXTT11=
EXTT12=
EXTT13=
EXTT14=
EXTT15=
EXTT16=
EXTT17=
EXTT18=
EXTT19=
EXTT20=
EXTT21=
PLAYORDER=
